<?xml version="1.0" encoding="utf-8"?>
<!-- Generator: Adobe Illustrator 23.0.1, SVG Export Plug-In . SVG Version: 6.00 Build 0)  -->
<svg version="1.1" id="Capa_1" xmlns="http://www.w3.org/2000/svg" xmlns:xlink="http://www.w3.org/1999/xlink" x="0px" y="0px"
	 viewBox="0 0 93.8 93.8" style="enable-background:new 0 0 93.8 93.8;" xml:space="preserve">
<path d="M71.9,0h-50C16.1,0,10.5,2.3,6.4,6.4S0,16.1,0,21.9v50c0,5.8,2.3,11.4,6.4,15.5s9.7,6.4,15.5,6.4h50
	c5.8,0,11.4-2.3,15.5-6.4s6.4-9.7,6.4-15.5v-50c0-5.8-2.3-11.4-6.4-15.5S77.7,0,71.9,0z M87.5,71.9c0,4.1-1.7,8.1-4.6,11
	s-6.9,4.6-11,4.6h-50c-4.1,0-8.1-1.7-11-4.6s-4.6-6.9-4.6-11v-50c0-4.1,1.7-8.1,4.6-11s6.9-4.6,11-4.6h50c4.1,0,8.1,1.7,11,4.6
	s4.6,6.9,4.6,11V71.9z M46.9,25c-5.8,0-11.4,2.3-15.5,6.4S25,41.1,25,46.9s2.3,11.4,6.4,15.5s9.7,6.4,15.5,6.4
	c5.8,0,11.4-2.3,15.5-6.4s6.4-9.7,6.4-15.5s-2.3-11.4-6.4-15.5S52.7,25,46.9,25L46.9,25z M46.9,62.5c-4.1,0-8.1-1.6-11-4.6
	c-2.9-2.9-4.6-6.9-4.6-11s1.6-8.1,4.6-11c2.9-2.9,6.9-4.6,11-4.6s8.1,1.6,11,4.6c2.9,2.9,4.6,6.9,4.6,11s-1.7,8.1-4.6,11
	C55,60.9,51,62.5,46.9,62.5L46.9,62.5z M78.9,20.3c0,2.2-1.3,4.2-3.4,5.1c-2,0.8-4.4,0.4-6-1.2c-1.6-1.6-2-3.9-1.2-6
	c0.8-2,2.8-3.4,5.1-3.4C76.5,14.9,78.9,17.3,78.9,20.3L78.9,20.3z"/>
</svg>
